<?xml version="1.0" standalone="no"?>
<!DOCTYPE svg PUBLIC "-//W3C//DTD SVG 20010904//EN"
 "http://www.w3.org/TR/2001/REC-SVG-20010904/DTD/svg10.dtd">
<svg version="1.0" xmlns="http://www.w3.org/2000/svg"
 width="600.000000pt" height="600.000000pt" viewBox="0 0 600.000000 600.000000"
 preserveAspectRatio="xMidYMid meet">
<metadata>
Created by potrace 1.14, written by Peter Selinger 2001-2017
</metadata>
<g transform="translate(0.000000,600.000000) scale(0.100000,-0.100000)"
fill="#000000" stroke="none">
<path d="M1431 5078 c-11 -210 -50 -769 -67 -956 l-6 -73 103 3 103 3 18 65
c69 243 136 405 222 534 149 221 259 239 1439 234 l697 -3 -186 -270 c-333
-482 -887 -1274 -1262 -1805 -107 -151 -273 -385 -368 -520 -95 -135 -371
-524 -613 -865 l-439 -620 26 -50 27 -50 1766 -3 1766 -2 41 182 c35 152 197
919 205 967 1 10 -24 19 -93 33 -52 10 -98 17 -103 15 -5 -1 -35 -69 -67 -150
-121 -305 -253 -515 -385 -615 -119 -89 -269 -135 -545 -164 -268 -28 -1649
-12 -1765 21 -20 6 -8 26 173 291 516 755 1244 1802 2350 3378 144 205 262
377 262 382 0 5 -10 30 -22 55 l-22 45 -1455 2 -1456 3 -41 22 c-43 23 -98 79
-116 119 -10 22 -17 24 -93 24 l-81 0 -13 -232z"/>
</g>
</svg>
